<?xml version="1.0" encoding="utf-8"?>
<!-- Generator: Adobe Illustrator 26.2.1, SVG Export Plug-In . SVG Version: 6.00 Build 0)  -->
<svg version="1.1" id="Layer_1" xmlns="http://www.w3.org/2000/svg" xmlns:xlink="http://www.w3.org/1999/xlink" x="0px" y="0px"
	 viewBox="0 0 993.6 830.4" style="enable-background:new 0 0 993.6 830.4;" xml:space="preserve">
<style type="text/css">
	.st0{fill:#CCCCCC;}
</style>
<g>
	<g>
		<path class="st0" d="M796.2,344.6C759.7,265.2,679.4,210,586.3,210H376.9c-0.1,0-0.2-0.1-0.1-0.2c76.5-76.1,84.8-172.2,85.3-180.1
			c0-0.1-0.2-0.2-0.3-0.1C390.4,141.1,331.2,183.8,278,210c-30,14.8-58,24.3-85.4,38c-73.4,36.7-55.4,63.7-54.1,65.5
			c0,0.1,0,0.1,0,0.2c-1.2,0.9-14.8,10.7-40.1,31c-12.7,10.1-28.2,22.8-46.7,38.3c-55.1,46.1-7.9,98.9-3.9,103.2
			c0.1,0.1,0.2,0,0.2-0.1c-0.2-3.3-0.1-26.5,38.3-32.8c39.6-6.4,72.6-20.4,75.4-21.7c0.1,0,0.1-0.2,0-0.2
			c-28.6-23.9,36.6-79.5,126.5-56.8c52.8,13.3,103.4,12.8,136.3,10.1c0.1,0,0.2-0.2,0.1-0.2c-37.7-33.4-42.1-71.7-42.6-77.7
			c0-0.2,0.2-0.2,0.3,0c6.3,15.6,15.9,28,27,37.8c0,0,0.1,0,0.1,0h177c25.3,0,48.4,9.8,65.6,25.8c0.1,0.1,0.3,0,0.2-0.1
			c-12.7-37-49.1-63.8-54.8-67.9c-0.1-0.1,0-0.3,0.1-0.2c9.6,3.2,93.4,34.4,85.1,138.8c0,0,0,0,0,0c0,53.2-43.1,96.3-96.3,96.3
			H361.5c-83.6,0-153.7,57.2-173.5,134.6c-3.6,14.2-5.6,29.1-5.6,44.5c0,25.8,5.5,50.3,15.3,72.4c0.6,1.4,2,2.2,3.4,2.2l0,0
			c2.3,0,4.1-2.1,3.7-4.4c-0.7-4.2-1.1-8.5-1.2-12.9c-1.7-56,44.3-101.9,100.4-101.9h282.4c93.1,0,173.4-55.1,209.9-134.6
			c13.5-29.3,21-61.9,21-96.3C817.2,406.5,809.7,373.9,796.2,344.6z M253.2,273.2c-15.3,1.4-36.6,9-41.9,10.9
			c-0.2,0.1-0.3-0.2-0.1-0.2c13.6-9,31.7-28.9,32.5-29.8c0,0,0,0,0.1,0c14.2-3.6,39.8-12,46.9-14.4c0.2-0.1,0.3,0.2,0.1,0.3
			C274.9,248.4,254.2,272,253.2,273.2C253.3,273.2,253.2,273.2,253.2,273.2z"/>
		<path class="st0" d="M889.4,522.3c-11.8,15.8-30,42.5-19.3,63c13.8,26.4,54.3,13.4,54.3,13.4c-0.2,0.4-0.4,0.7-0.5,1.1
			c-9.2,17.6-21.3,33.6-35.5,47.5c-7.1,7-14.6,13.4-22.6,19.4c-4,3-8,5.8-12.2,8.6c-3.7,2.4-9.6,4.6-12.6,7.6c0,0,0,0,0,0
			c-40.6,22.1-84.5,30.4-129.5,38.9c-9.5,1.8-22.6,3.1-25.2,14.7c-4.8,21.7,47.1,29.9,52.3,30.6c0.1,0,0.2,0.2,0,0.3
			c-31.6,16.7-89.5,13.4-134.6-16.7c-15-10-31.5-19.5-49.1-24.1c-15.7-4.1-32.4-4.8-48.3-1.1c-8.8,2.1-17.3,5.9-23.7,12.2
			c-12.5,12.4-10,27.5-3.7,42.3c2,4.6,5.3,9,7,13.6c0,0.1,0,0.2-0.1,0.2c-9,3.1-22,1.4-31.3,0.5c-9.8-0.9-19.4-2.7-28.9-5.3
			c-14.6-3.9-28.7-9.5-42.1-16.4c-16.1-8.3-31.1-17.2-48-24.3c-34.2-14.3-69.4-24.2-101.3-25.7c-0.1,0-0.2-0.1-0.1-0.2
			c15.1-21.2,39.9-35.1,67.9-35.1h283.9c48.1,0,94.6-13.9,134.7-40c39-25.5,69.9-61.3,89.3-103.6c14.9-32.3,22.4-66.9,22.4-102.8
			c0-35.9-7.5-70.5-22.4-102.8C790.9,295.9,760,260,721,234.5c-40.1-26.2-86.6-40-134.7-40H411.5c-0.1,0-0.2-0.1-0.1-0.2
			c21.9-27.6,36.5-56.1,46.4-81.5c0-0.1,0.1-0.1,0.2-0.1c22.7,11.9,46.6,21.9,70.8,25.6c6.7,1,13.7,1.5,19.9-1.3
			c31.6-14.3-13.4-58.5-28.1-71.5c-0.1-0.1,0-0.3,0.2-0.2c5.9,3.1,18.8,3.8,24.2,5.3c52.5,14.3,95.1,41.4,134.3,79
			c18.1,17.4,39.5,44.4,68.1,36.6c38.4-10.5,6.3-52,3.4-55.6c-0.1-0.1,0-0.2,0.1-0.2c14.2,1.4,28.3,6.5,40.7,13.3
			c47,25.5,76.8,74.5,85.4,126.6c3.6,21.9,2.5,44.2,4.1,66.3c1.1,14.4-0.2,36.2,14.8,43.9c27.2,13.9,52.8-33.4,62.3-52.8
			c0.1-0.1,0.2-0.1,0.3,0c13.8,35.9,13.5,78.4-4.5,112.8C937.5,471.4,909.8,494.8,889.4,522.3z"/>
	</g>
</g>
</svg>
